<?xml version="1.0" encoding="UTF-8" standalone="no"?>
<!DOCTYPE svg PUBLIC "-//W3C//DTD SVG 1.1//EN" "http://www.w3.org/Graphics/SVG/1.1/DTD/svg11.dtd">
<svg width="754px" height="9px" version="1.1" xmlns="http://www.w3.org/2000/svg" xmlns:xlink="http://www.w3.org/1999/xlink" xml:space="preserve" xmlns:serif="http://www.serif.com/" style="fill-rule:evenodd;clip-rule:evenodd;stroke-linecap:square;stroke-linejoin:round;stroke-miterlimit:1.5;">
    <g transform="matrix(1,0,0,1,-72.5,-95.5)">
        <g id="Horizontal-Decoration" serif:id="Horizontal Decoration">
            <path id="Center" d="M100,100L800,100" style="fill:none;stroke:black;stroke-width:1px;"/>
            <g id="End-Left">
                <g transform="matrix(0.0128571,0,0,1,79.7143,0)">
                    <path d="M100,100L800,100" style="fill:none;stroke:black;stroke-width:1.41px;"/>
                </g>
                <g transform="matrix(0.4,0,0,0.4,51,40)">
                    <rect x="100" y="140" width="20" height="20" style="fill:none;stroke:black;stroke-width:2.5px;stroke-linecap:round;"/>
                </g>
                <g transform="matrix(0.4,0,0,0.4,33,40)">
                    <rect x="100" y="140" width="20" height="20" style="stroke:black;stroke-width:2.5px;stroke-linecap:round;"/>
                </g>
            </g>
            <g id="End-Right" transform="matrix(1,0,0,1,727,1.42109e-14)">
                <g transform="matrix(0.0128571,0,0,1,79.7143,0)">
                    <path d="M100,100L800,100" style="fill:none;stroke:black;stroke-width:1.41px;"/>
                </g>
                <g transform="matrix(0.4,0,0,0.4,51,40)">
                    <rect x="100" y="140" width="20" height="20" style="stroke:black;stroke-width:2.5px;stroke-linecap:round;"/>
                </g>
                <g transform="matrix(0.4,0,0,0.4,33,40)">
                    <rect x="100" y="140" width="20" height="20" style="fill:none;stroke:black;stroke-width:2.5px;stroke-linecap:round;"/>
                </g>
            </g>
        </g>
    </g>
</svg>
